<svg width="33" height="36" viewBox="0 0 33 36" fill="none" xmlns="http://www.w3.org/2000/svg">
<path d="M15.008 17.188L0.0980225 33.008V33.022C0.259356 33.6213 0.556992 34.1752 0.967703 34.6404C1.37841 35.1057 1.89109 35.4698 2.46572 35.7043C3.04035 35.9387 3.66138 36.0372 4.28036 35.9921C4.89933 35.9469 5.4995 35.7593 6.03402 35.444L6.07602 35.416L22.848 25.742L15.008 17.188Z" fill="#EA4335"/>
<path d="M30.086 14.4999L30.072 14.4859L22.834 10.2859L14.672 17.5519L22.862 25.7419L30.072 21.5839C30.7097 21.2387 31.2426 20.7278 31.6143 20.1052C31.9861 19.4826 32.1831 18.7712 32.1845 18.0461C32.186 17.3209 31.9918 16.6087 31.6225 15.9846C31.2532 15.3606 30.7224 14.8476 30.086 14.4999Z" fill="#FBBC04"/>
<path d="M15.12 17.9999L22.834 10.2859L6.07602 0.569947C5.54031 0.249621 4.93774 0.0576296 4.31546 0.00899916C3.69318 -0.0396313 3.06809 0.0564214 2.48913 0.289636C1.91016 0.52285 1.39302 0.886896 0.9782 1.35328C0.563377 1.81967 0.262123 2.37573 0.0980225 2.97795L15.12 17.9999Z" fill="#34A853"/>
</svg>
