<svg width="34" height="36" viewBox="0 0 34 36" fill="none" xmlns="http://www.w3.org/2000/svg">
<path d="M1.09801 2.99194C1.01401 3.32794 0.958008 3.66394 0.958008 4.02794V31.9859C0.958008 32.3499 1.00001 32.6859 1.09801 33.0219L16.512 17.6079L1.09801 2.99194Z" fill="#4285F4"/>
<path d="M16.008 17.188L1.09802 33.008V33.022C1.25936 33.6213 1.55699 34.1752 1.9677 34.6404C2.37841 35.1057 2.89109 35.4698 3.46572 35.7043C4.04035 35.9387 4.66138 36.0372 5.28036 35.9921C5.89933 35.9469 6.4995 35.7593 7.03402 35.444L7.07602 35.416L23.848 25.742L16.008 17.188Z" fill="#EA4335"/>
<path d="M31.086 14.4999L31.072 14.4859L23.834 10.2859L15.672 17.5519L23.862 25.7419L31.072 21.5839C31.7097 21.2387 32.2426 20.7278 32.6143 20.1052C32.9861 19.4826 33.1831 18.7712 33.1845 18.0461C33.186 17.3209 32.9918 16.6087 32.6225 15.9846C32.2532 15.3606 31.7224 14.8476 31.086 14.4999Z" fill="#FBBC04"/>
<path d="M16.12 17.9999L23.834 10.2859L7.07602 0.569947C6.54031 0.249621 5.93774 0.0576296 5.31546 0.00899916C4.69318 -0.0396313 4.06809 0.0564214 3.48913 0.289636C2.91016 0.52285 2.39302 0.886896 1.9782 1.35328C1.56338 1.81967 1.26212 2.37573 1.09802 2.97795L16.12 17.9999Z" fill="#34A853"/>
</svg>
